# xmcd
#
# Track frame offsets: 
#        182
#        17662
#        33740
#        52100
#        68382
#        84345
#        100387
#        112757
#        129440
#        145362
#        163307
#        194807
#        210922
#        226560
#        243845
#        259792
#        275732
#        290957
#        308605
#        325780
#
# Disc length: 4537 seconds
#
# Revision: 7
# Processed by: cddbd v1.5.2PL0 Copyright (c) Steve Scherf et al.
# Submitted via: ExactAudioCopy v0.99pb5
#
DISCID=1e11b714
DTITLE=Various Artist - Booom 2001 - The Second - CD 2
DYEAR=2001
DGENRE=Pop
TTITLE0=Scooter - Posse - I need you on the floor
TTITLE1=Barthezz - On the move
TTITLE2=Sylver - Turn the tide
TTITLE3=Jam and Spoon feat. Rea - Be.angeled
TTITLE4=Fragma - You are alive
TTITLE5=Members Of Mayday - 10IN01
TTITLE6=Blank and Jones - DJs, fans and freaks (D.F.F.)
TTITLE7=Flying Steps - Breakin' it down
TTITLE8=Twister's Silence - Listen to me mama
TTITLE9=Gigi D'Agostino and Albertino - Super (Riscaldamento)
TTITLE10=Chris Kain - The decision is yours
TTITLE11=Fatboy Slim - Star 69
TTITLE12=M&S pres. The Girl Next Door - Salsoul nugget (if u wanna)
TTITLE13=Bee Bumpers - Road to hell
TTITLE14=Audiosmog and Tobi Schlegl - Daylight in your eyes
TTITLE15=Sven Schumacher - Different
TTITLE16=Freistil - Küssenschlacht
TTITLE17=2raumwohnung - Nimm mich mit - Das Abenteuer Liebe usw
TTITLE18=Apricot - Only you can
TTITLE19=Captain Jack - Iko Iko
EXTD=YEAR: 2001
EXTT0=
EXTT1=
EXTT2=
EXTT3=
EXTT4=
EXTT5=
EXTT6=
EXTT7=
EXTT8=
EXTT9=
EXTT10=
EXTT11=
EXTT12=
EXTT13=
EXTT14=
EXTT15=
EXTT16=
EXTT17=
EXTT18=
EXTT19=
PLAYORDER=
